# xmcd CD database file
#
# Track frame offsets:
#	150
#	20370
#	41663
#	66158
#	83539
#	102643
#	123479
#	142668
#	167342
#	184712
#	202594
#	221893
#	239818
#	257220
#	277507
#	298313
#	310390
#	338067
#
# Disc length: 4788 seconds
#
# Revision: 2
# Processed by: cddbd v1.5.1PL0 Copyright (c) Steve Scherf et al.
# Submitted via: CDex 1.51
#
DISCID=0512b212
DTITLE=Joe Cocker - Best Ballads
DYEAR=2001
DGENRE=Ballad
TTITLE0=Naked Without You
TTITLE1=N'oublies Jamais
TTITLE2=A Whiter Shade Of Pale
TTITLE3=Up Where We Belong
TTITLE4=You Can Leave Your Hat On
TTITLE5=Now That The Magic Has Gone
TTITLE6=A Woman Has A Man
TTITLE7=Don't Let The Sun Go Down On Me
TTITLE8=Crazy In Love
TTITLE9=When The Night Comes
TTITLE10=Now That You're Gone
TTITLE11=Sorry Seems To Be The Hardest Word
TTITLE12=Summer In The City
TTITLE13=My Father's Son
TTITLE14=The One
TTITLE15=You Are So Beatiful
TTITLE16=St. James Infirmary 'Blues'
TTITLE17=What Do You Say
EXTD=ripped by LeXa YEAR: 2001
EXTT0=
EXTT1=
EXTT2=
EXTT3=
EXTT4=
EXTT5=
EXTT6=
EXTT7=
EXTT8=
EXTT9=
EXTT10=
EXTT11=
EXTT12=
EXTT13=
EXTT14=
EXTT15=
EXTT16=
EXTT17=
PLAYORDER=
